<svg width="1600" height="1600" version="1.1" viewBox="0 0 1600 1600" xmlns="http://www.w3.org/2000/svg">
 <g fill="{{iconFill}}">
  <g transform="matrix(100 0 0 100 -34100 -15700)" enable-background="new">
   <path d="m347.5 161c-.27613.00003-.49997.22387-.5.5v2.5h-1.5c-.27613.00003-.49997.22387-.5.5v3c.00003.27613.22387.49997.5.5h3c.27613-.00003.49997-.22387.5-.5v1c.00003.27613.22387.49997.5.5h3c.27613-.00003.49997-.22387.5-.5v-3c-.00003-.27613-.22387-.49997-.5-.5h-2c.27613-.00003.49997-.22387.5-.5v-3c-.00003-.27613-.22387-.49997-.5-.5zm.5 1h2v2h-2zm-2 3h2v2h-2zm4 1h2v2h-2z"/>
   <path d="m343.51 157.99c0.11635 2e-3 0.22824 0.0451 0.31641 0.12109 7e-3 5e-3 0.0131 0.0102 0.0195 0.0156 6e-3 6e-3 0.0119 0.0116 0.0176 0.0176 6.7e-4 1e-3 1e-3 3e-3 2e-3 4e-3 0.0109 0.0106 0.0213 0.0217 0.0312 0.0332 6.7e-4 1e-3 1e-3 3e-3 2e-3 4e-3 0.01 0.0119 0.0188 0.0243 0.0274 0.0371 6.7e-4 1e-3 1e-3 3e-3 2e-3 4e-3 0.0678 0.10442 0.0942 0.23038 0.0741 0.35325v0.91797c0.01 0.67616-1.0096 0.67616-1 0v-0.5h-0.5c-0.67616 0.01-0.67616-1.0096 0-1h0.91992c0.029-5e-3 0.0584-8e-3 0.0879-8e-3zm0 3c0.27614 4e-3 0.49651 0.23167 0.49219 0.50781v1c0.01 0.67616-1.0096 0.67616-1 0v-1c-4e-3 -0.28226 0.22555-0.51223 0.50781-0.50781zm0 3c0.27614 4e-3 0.49651 0.23167 0.49219 0.50781v1c0.01 0.67616-1.0096 0.67616-1 0v-1c-4e-3 -0.28226 0.22555-0.51223 0.50781-0.50781zm0 3c0.27614 4e-3 0.49651 0.23167 0.49219 0.50781v1c0.01 0.67616-1.0096 0.67616-1 0v-1c-4e-3 -0.28226 0.22555-0.51223 0.50781-0.50781zm0 3c0.27614 4e-3 0.49651 0.23167 0.49219 0.50781v0.91992c0.0234 0.14486-0.018 0.29268-0.11328 0.4043-5e-3 7e-3 -0.0102 0.0131-0.0156 0.0195-6e-3 6e-3 -0.0116 0.0119-0.0176 0.0176-1e-3 6.7e-4 -3e-3 1e-3 -4e-3 2e-3 -0.0106 0.0109-0.0217 0.0213-0.0332 0.0312-1e-3 6.7e-4 -3e-3 1e-3 -4e-3 2e-3 -0.11078 0.0889-0.25417 0.12657-0.39435 0.10348h-0.91797c-0.67616 0.01-0.67616-1.0096 0-1h0.5v-0.5c-4e-3 -0.28226 0.22555-0.51223 0.50781-0.50781z" opacity=".6"/>
   <path d="m354.51 157.99c0.0249 7.5e-4 0.0497 3e-3 0.0742 8e-3h0.91799c0.67616-0.01 0.67616 1.0096 0 1h-0.5v0.5c0.01 0.67616-1.0096 0.67616-1 0v-0.91992c-0.0234-0.14486 0.018-0.29268 0.11328-0.4043 6.6e-4 -1e-3 1e-3 -3e-3 2e-3 -4e-3 0.01-0.0115 0.0203-0.0226 0.0312-0.0332 1e-3 -6.7e-4 3e-3 -1e-3 4e-3 -2e-3 0.0106-0.0109 0.0217-0.0213 0.0332-0.0312 1e-3 -6.7e-4 3e-3 -1e-3 4e-3 -2e-3 0.0905-0.0733 0.20383-0.11266 0.32031-0.11133zm0 3c0.27614 4e-3 0.49651 0.23167 0.49219 0.50781v1c0.01 0.67616-1.0096 0.67616-1 0v-1c-4e-3 -0.28226 0.22555-0.51223 0.50781-0.50781zm0 3c0.27614 4e-3 0.49651 0.23167 0.49219 0.50781v1c0.01 0.67616-1.0096 0.67616-1 0v-1c-4e-3 -0.28226 0.22555-0.51223 0.50781-0.50781zm0 3c0.27614 4e-3 0.49651 0.23167 0.49219 0.50781v1c0.01 0.67616-1.0096 0.67616-1 0v-1c-4e-3 -0.28226 0.22555-0.51223 0.50781-0.50781zm0 3c0.27614 4e-3 0.49651 0.23167 0.49219 0.50781v0.5h0.5c0.67616-0.01 0.67616 1.0096 0 1h-0.91992c-0.14486 0.0234-0.29268-0.018-0.4043-0.11328-1e-3 -6.6e-4 -3e-3 -1e-3 -4e-3 -2e-3 -0.0115-0.01-0.0226-0.0203-0.0332-0.0312-6.7e-4 -1e-3 -1e-3 -3e-3 -2e-3 -4e-3 -0.0109-0.0106-0.0213-0.0217-0.0312-0.0332-6.7e-4 -1e-3 -1e-3 -3e-3 -2e-3 -4e-3 -0.01-0.0119-0.0188-0.0243-0.0274-0.0371-6.7e-4 -1e-3 -1e-3 -3e-3 -2e-3 -4e-3 -0.0678-0.10443-0.0942-0.23039-0.074-0.35325v-0.91797c-4e-3 -0.28226 0.22555-0.51223 0.50781-0.50781z" opacity=".6"/>
  </g>
 </g>
</svg>
